<svg width="12" height="7" viewBox="0 0 12 7" fill="none" xmlns="http://www.w3.org/2000/svg">
<path d="M6.16909 6.41131L11.4791 0.838306C11.5677 0.745318 11.6172 0.621776 11.6172 0.493306C11.6172 0.364835 11.5677 0.241295 11.4791 0.148306L11.4731 0.142306C11.4301 0.0970708 11.3784 0.0610512 11.3211 0.0364375C11.2637 0.0118237 11.202 -0.00086931 11.1396 -0.000869316C11.0772 -0.000869321 11.0155 0.0118237 10.9581 0.0364375C10.9008 0.0610512 10.8491 0.0970707 10.8061 0.142306L5.80609 5.39031L0.808093 0.142305C0.765119 0.0970698 0.713393 0.0610503 0.65606 0.0364366C0.598727 0.0118228 0.536986 -0.000870243 0.474593 -0.000870248C0.4122 -0.000870254 0.350459 0.0118228 0.293126 0.0364365C0.235793 0.0610503 0.184066 0.0970698 0.141093 0.142305L0.135092 0.148305C0.0464476 0.241294 -0.00300353 0.364834 -0.00300354 0.493305C-0.00300355 0.621775 0.0464476 0.745317 0.135092 0.838305L5.44509 6.41131C5.49179 6.46032 5.54795 6.49934 5.61018 6.526C5.6724 6.55266 5.7394 6.56641 5.80709 6.56641C5.87479 6.56641 5.94178 6.55266 6.00401 6.526C6.06623 6.49934 6.1224 6.46032 6.16909 6.41131Z" fill="#91928E"/>
</svg>
