<svg class="viewIcon" width="38" height="37" viewBox="0 0 38 37" fill="none" xmlns="http://www.w3.org/2000/svg">
<rect x="0.726562" y="0.5" width="36" height="36" rx="4.5" fill="white" stroke="#E3E3E3"/>
<path d="M18.5 23.0769C22.168 23.0769 25.3407 21.0277 26.973 18C25.3407 14.9723 22.168 12.9231 18.5 12.9231C14.832 12.9231 11.6593 14.9723 10.027 18C11.6593 21.0277 14.832 23.0769 18.5 23.0769ZM18.5 12C22.6815 12 26.2944 14.4462 28 18C26.2944 21.5538 22.6815 24 18.5 24C14.3185 24 10.7056 21.5538 9 18C10.7056 14.4462 14.3185 12 18.5 12ZM18.5 13.8462C20.7925 13.8462 22.6264 15.6923 22.6264 18C22.6264 20.3077 20.7925 22.1538 18.5 22.1538C16.2075 22.1538 14.3736 20.3077 14.3736 18C14.3736 15.6923 16.2075 13.8462 18.5 13.8462ZM18.5 14.7692C17.6488 14.7692 16.8325 15.1096 16.2306 15.7155C15.6287 16.3214 15.2905 17.1431 15.2905 18C15.2905 18.8569 15.6287 19.6786 16.2306 20.2845C16.8325 20.8904 17.6488 21.2308 18.5 21.2308C19.3512 21.2308 20.1675 20.8904 20.7694 20.2845C21.3713 19.6786 21.7095 18.8569 21.7095 18C21.7095 17.1431 21.3713 16.3214 20.7694 15.7155C20.1675 15.1096 19.3512 14.7692 18.5 14.7692Z" fill="#E52A36"/>
</svg>
