<svg class="editIcon" width="37" height="37" viewBox="0 0 37 37" fill="none" xmlns="http://www.w3.org/2000/svg">
<rect x="0.5" y="0.5" width="36" height="36" rx="4.5" fill="white" stroke="#E3E3E3"/>
<path d="M10.5469 27.936H27.4469C27.5795 27.936 27.7067 27.8834 27.8004 27.7896C27.8942 27.6958 27.9469 27.5686 27.9469 27.436C27.9469 27.3034 27.8942 27.1763 27.8004 27.0825C27.7067 26.9887 27.5795 26.936 27.4469 26.936H10.5469C10.4143 26.936 10.2871 26.9887 10.1933 27.0825C10.0996 27.1763 10.0469 27.3034 10.0469 27.436C10.0469 27.5686 10.0996 27.6958 10.1933 27.7896C10.2871 27.8834 10.4143 27.936 10.5469 27.936ZM16.7089 24.178C17.1311 24.0593 17.5163 23.8357 17.8289 23.528L27.3689 13.988C27.6956 13.66 27.879 13.216 27.879 12.753C27.879 12.2901 27.6956 11.846 27.3689 11.518L26.4289 10.588C26.096 10.2707 25.6538 10.0938 25.1939 10.0938C24.734 10.0938 24.2918 10.2707 23.9589 10.588L14.4189 20.118C14.1112 20.429 13.8906 20.8151 13.7789 21.238L13.0389 23.998C13.0041 24.1241 13.0033 24.2572 13.0367 24.3837C13.0701 24.5102 13.1364 24.6255 13.2289 24.718C13.3706 24.8569 13.5605 24.9357 13.7589 24.938L16.7089 24.178ZM17.1189 22.818C16.9345 23.0056 16.7031 23.1403 16.4489 23.208L15.4789 23.468L14.4789 22.468L14.7389 21.498C14.8079 21.2444 14.9424 21.0133 15.1289 20.828L15.5089 20.458L17.4989 22.448L17.1189 22.818ZM18.2089 21.738L16.2189 19.748L22.9489 13.018L24.9389 15.008L18.2089 21.738ZM26.6589 13.288L25.6489 14.298L23.6589 12.308L24.6689 11.288C24.8095 11.1476 25.0001 11.0687 25.1989 11.0687C25.3976 11.0687 25.5882 11.1476 25.7289 11.288L26.6589 12.228C26.7984 12.3692 26.8766 12.5596 26.8766 12.758C26.8766 12.9565 26.7984 13.1469 26.6589 13.288Z" fill="#E52A36"/>
</svg>
