<svg width="37" height="37" viewBox="0 0 37 37" fill="none" xmlns="http://www.w3.org/2000/svg">
<rect x="0.5" y="0.5" width="36" height="36" rx="4.5" fill="white" stroke="#E3E3E3"/>
<path fill-rule="evenodd" clip-rule="evenodd" d="M13.321 12.313C16.4351 9.20322 21.4974 9.23629 24.6305 12.3695C27.7651 15.504 27.7968 20.5693 24.683 23.683C21.5692 26.7968 16.5039 26.7651 13.3694 23.6305C11.5119 21.7731 10.7449 19.2389 11.0742 16.8359C11.1204 16.4991 11.4308 16.2636 11.7675 16.3098C12.1042 16.3559 12.3397 16.6663 12.2936 17.003C12.0146 19.0381 12.6639 21.1844 14.2397 22.7603C16.9019 25.4224 21.1878 25.4376 23.8127 22.8127C26.4376 20.1878 26.4224 15.9019 23.7602 13.2397C21.0994 10.579 16.8165 10.5624 14.1913 13.1832L14.8048 13.1863C15.1446 13.188 15.4187 13.4649 15.417 13.8048C15.4153 14.1447 15.1384 14.4188 14.7986 14.4171L12.7099 14.4066C12.3725 14.4049 12.0993 14.1317 12.0976 13.7943L12.0871 11.7056C12.0854 11.3658 12.3596 11.0889 12.6994 11.0872C13.0393 11.0855 13.3162 11.3596 13.3179 11.6995L13.321 12.313ZM18.9999 14.1025C19.3398 14.1025 19.6153 14.378 19.6153 14.7179V17.7451L21.4863 19.6161C21.7266 19.8564 21.7266 20.2461 21.4863 20.4863C21.246 20.7266 20.8563 20.7266 20.6161 20.4863L18.3845 18.2549V14.7179C18.3845 14.378 18.6601 14.1025 18.9999 14.1025Z" fill="#E52A36"/>
</svg>
