<svg width="17" height="17" viewBox="0 0 17 17" fill="none" xmlns="http://www.w3.org/2000/svg">
<path d="M6.53569 12.2295C4.93702 12.2295 3.58202 11.6742 2.47069 10.5635C1.36002 9.45353 0.804688 8.09887 0.804688 6.49953C0.804688 4.9002 1.36002 3.5452 2.47069 2.43453C3.58135 1.32387 4.93635 0.768865 6.53569 0.769532C8.13502 0.770199 9.48969 1.32553 10.5997 2.43553C11.7097 3.54553 12.265 4.9002 12.2657 6.49953C12.2657 7.1942 12.1427 7.86653 11.8967 8.51653C11.6507 9.16653 11.3274 9.72253 10.9267 10.1845L16.8357 16.0915C16.929 16.1849 16.979 16.2999 16.9857 16.4365C16.9917 16.5719 16.9417 16.6929 16.8357 16.7995C16.729 16.9062 16.611 16.9595 16.4817 16.9595C16.3524 16.9595 16.2344 16.9062 16.1277 16.7995L10.2197 10.8915C9.71969 11.3175 9.14469 11.6472 8.49469 11.8805C7.84469 12.1139 7.19135 12.2305 6.53469 12.2305M6.53469 11.2305C7.86135 11.2305 8.98169 10.7739 9.89569 9.86053C10.809 8.9472 11.2657 7.82687 11.2657 6.49953C11.2657 5.1722 10.8094 4.0522 9.89669 3.13953C8.98402 2.22687 7.86402 1.7702 6.53669 1.76953C5.20935 1.76953 4.08902 2.2262 3.17569 3.13953C2.26235 4.05287 1.80535 5.17287 1.80469 6.49953C1.80402 7.8262 2.26069 8.9462 3.17469 9.85953C4.08869 10.7729 5.20869 11.2295 6.53469 11.2295" fill="#E62B37"/>
</svg>
